<?xml version="1.0" encoding="UTF-8"?>
<svg version="1.1" xmlns="http://www.w3.org/2000/svg" width="145" height="145">
<path d="M0 0 C47.85 0 95.7 0 145 0 C145 47.85 145 95.7 145 145 C97.15 145 49.3 145 0 145 C0 97.15 0 49.3 0 0 Z " fill="#FDFDFB" transform="translate(0,0)"/>
<path d="M0 0 C0.66 0 1.32 0 2 0 C1.09555524 4.37833486 -0.90544851 8.14787337 -2.84375 12.1484375 C-7.21958078 22.94018232 -5.6121795 34.95370561 -1.54296875 45.55078125 C0.6459772 50.44404523 3.27144415 54.1737199 7 58 C8.0209375 59.06154297 8.0209375 59.06154297 9.0625 60.14453125 C17.7371155 68.49384867 27.20601012 71.62094708 39 73 C38.84015625 72.43667969 38.6803125 71.87335938 38.515625 71.29296875 C36.46530993 62.17527976 38.82390119 54.0980003 43 46 C42.34 45.67 41.68 45.34 41 45 C41.99 43.68 42.98 42.36 44 41 C42.02 40.505 42.02 40.505 40 40 C41.32 40 42.64 40 44 40 C43.505 39.54625 43.01 39.0925 42.5 38.625 C41 37 41 37 41 35 C42.65 35.66 44.3 36.32 46 37 C46 35.35 46 33.7 46 32 C46.66 32.33 47.32 32.66 48 33 C48 34.32 48 35.64 48 37 C49.32 37.66 50.64 38.32 52 39 C51.979375 39.763125 51.95875 40.52625 51.9375 41.3125 C51.87057159 44.10185786 51.87057159 44.10185786 53 47 C51.515 46.505 51.515 46.505 50 46 C49.67 46.99 49.34 47.98 49 49 C48.34 49 47.68 49 47 49 C46.67 48.34 46.34 47.68 46 47 C41.85227282 55.90650345 41.53162942 63.35937228 42 73 C45.8969135 72.94803518 49.79162586 72.85293522 53.6875 72.75 C54.79029297 72.73582031 55.89308594 72.72164063 57.02929688 72.70703125 C63.31663781 72.52872563 63.31663781 72.52872563 69.140625 70.390625 C71.53080779 67.31753285 72.22465652 64.80341969 73.0625 61 C73.22041016 60.31373535 73.37832031 59.6274707 73.54101562 58.92041016 C74.45373726 54.86817864 75.23434927 50.79388789 75.99609375 46.7109375 C76.16423584 45.8240625 76.33237793 44.9371875 76.50561523 44.0234375 C76.82838646 42.29434007 77.13714735 40.56255187 77.42993164 38.828125 C78.7007141 31.89075415 81.44513457 26.45506558 87.07421875 21.90234375 C91.09805116 20.01693749 95.66959261 20.6532592 100 21 C100 22.32 100 23.64 100 25 C99.33613281 25.08636719 98.67226562 25.17273438 97.98828125 25.26171875 C97.10527344 25.40222656 96.22226563 25.54273437 95.3125 25.6875 C94.44238281 25.81511719 93.57226562 25.94273438 92.67578125 26.07421875 C88.87078032 27.39069352 87.41979838 28.74117605 85 32 C83.75063414 35.79015618 83.06307777 39.63670903 82.375 43.5625 C81.95828818 45.72810682 81.54033383 47.89347495 81.12109375 50.05859375 C80.92757324 51.08968262 80.73405273 52.12077148 80.53466797 53.18310547 C77.14174284 71.05870829 77.14174284 71.05870829 70.01733398 76.11816406 C65.32064129 78.70434119 60.7305218 78.60256201 55.47265625 78.609375 C54.48373886 78.62591125 53.49482147 78.64244751 52.47593689 78.65948486 C49.33806043 78.70781071 46.2006681 78.72930191 43.0625 78.75 C40.92640814 78.77817251 38.79033868 78.80810173 36.65429688 78.83984375 C31.43628536 78.91356514 26.21840913 78.96529784 21 79 C21 80.32 21 81.64 21 83 C37.83 83.33 54.66 83.66 72 84 C72.33 85.32 72.66 86.64 73 88 C69.535 88.99 69.535 88.99 66 90 C66.66 90.66 67.32 91.32 68 92 C68.46879799 95.59411792 68.44361448 97.35164037 66.375 100.375 C63.28813568 102.48706506 61.6717087 102.61195145 58 102 C55.5625 100.4375 55.5625 100.4375 54 98 C54.32142857 91.67857143 54.32142857 91.67857143 56 90 C49.07 90 42.14 90 35 90 C35.99 91.485 35.99 91.485 37 93 C37.50734682 96.29775432 37.31057067 97.55803405 35.375 100.3125 C32.2935202 102.50197249 30.70758991 102.61793165 27 102 C24.625 100.375 24.625 100.375 23 98 C22.625 94.875 22.625 94.875 23 92 C23.66 91.34 24.32 90.68 25 90 C23.3603125 89.62875 23.3603125 89.62875 21.6875 89.25 C18 88 18 88 16.0625 86.25 C14.63843427 83.23433139 14.51899233 81.29833831 15 78 C16.8670991 75.69724444 18.35647741 74.32176129 21 73 C20.46632812 72.74347656 19.93265625 72.48695312 19.3828125 72.22265625 C9.15674433 66.96808489 -0.62036516 58.90845494 -4.8046875 47.87890625 C-5.27662138 46.2723916 -5.65154484 44.63773927 -6 43 C-6.64066406 42.92523438 -7.28132813 42.85046875 -7.94140625 42.7734375 C-14.34299008 41.80032044 -18.87501953 40.17520556 -23 35 C-23.9375 32.125 -23.9375 32.125 -24 30 C-18.7258624 29.3407328 -15.90460441 30.93071484 -11.63671875 33.7109375 C-10 35 -10 35 -9 37 C-9.05220703 35.22496094 -9.05220703 35.22496094 -9.10546875 33.4140625 C-9.36537949 20.94626298 -8.53192773 11.37672057 -1 1 C-0.67 0.67 -0.34 0.34 0 0 Z " fill="#B98046" transform="translate(40,40)"/>
<path d="M0 0 C2.05078125 0.03255208 4.1015625 0.06510417 6.15234375 0.09765625 C6.5219453 7.20221945 6.10893724 14.13164042 5.08984375 21.16015625 C4.96355591 22.26701782 4.96355591 22.26701782 4.8347168 23.39624023 C4.4921875 25.5078125 4.4921875 25.5078125 3.15234375 29.09765625 C-0.359375 30.8515625 -0.359375 30.8515625 -3.84765625 32.09765625 C-5.17976978 33.89172372 -5.17976978 33.89172372 -5.59765625 35.97265625 C-7.70313854 43.64262745 -11.72414521 46.82326914 -18.22265625 50.97265625 C-18.97804688 51.483125 -19.7334375 51.99359375 -20.51171875 52.51953125 C-26.08945383 56.12750674 -26.08945383 56.12750674 -29.82421875 55.98046875 C-31.84765625 55.09765625 -31.84765625 55.09765625 -32.84765625 54.09765625 C-32.88829457 52.4314851 -32.89037725 50.7637753 -32.84765625 49.09765625 C-26.65500433 45.82679835 -20.56634675 43.09378893 -13.84765625 41.09765625 C-15.06453125 41.24203125 -16.28140625 41.38640625 -17.53515625 41.53515625 C-21.63499358 41.98633452 -25.7378337 42.3737518 -29.84765625 42.72265625 C-31.51828125 42.86574219 -31.51828125 42.86574219 -33.22265625 43.01171875 C-34.08890625 43.04007813 -34.95515625 43.0684375 -35.84765625 43.09765625 C-36.84765625 42.09765625 -36.84765625 42.09765625 -36.97265625 39.09765625 C-36.84765625 36.09765625 -36.84765625 36.09765625 -35.84765625 35.09765625 C-34.43437678 34.9414507 -33.01411035 34.84709452 -31.59375 34.78125 C-30.73974609 34.73935547 -29.88574219 34.69746094 -29.00585938 34.65429688 C-28.10802734 34.61498047 -27.21019531 34.57566406 -26.28515625 34.53515625 C-24.93260742 34.47038086 -24.93260742 34.47038086 -23.55273438 34.40429688 C-21.31790469 34.29787641 -19.08280139 34.19723144 -16.84765625 34.09765625 C-25.75765625 32.11765625 -25.75765625 32.11765625 -34.84765625 30.09765625 C-34.84765625 27.78765625 -34.84765625 25.47765625 -34.84765625 23.09765625 C-30.90648153 22.01498335 -28.73821028 22.17581101 -24.984375 23.75 C-24.09814453 24.11416016 -23.21191406 24.47832031 -22.29882812 24.85351562 C-21.38681641 25.24345703 -20.47480469 25.63339844 -19.53515625 26.03515625 C-18.60380859 26.42123047 -17.67246094 26.80730469 -16.71289062 27.20507812 C-14.4193721 28.15777043 -12.13156199 29.12219519 -9.84765625 30.09765625 C-10.38769287 29.76032471 -10.92772949 29.42299316 -11.48413086 29.07543945 C-13.92821806 27.5361991 -16.3565189 25.97364882 -18.78515625 24.41015625 C-19.63529297 23.87970703 -20.48542969 23.34925781 -21.36132812 22.80273438 C-22.17021484 22.27744141 -22.97910156 21.75214844 -23.8125 21.2109375 C-24.56136475 20.73438721 -25.31022949 20.25783691 -26.08178711 19.7668457 C-28.31045591 17.66019444 -28.52565099 16.09341552 -28.84765625 13.09765625 C-27.09765625 11.53515625 -27.09765625 11.53515625 -24.84765625 10.09765625 C-21.30944022 10.46341552 -19.73539353 11.89727906 -17.39453125 14.4765625 C-16.77578125 15.15009766 -16.15703125 15.82363281 -15.51953125 16.51757812 C-14.8853125 17.22462891 -14.25109375 17.93167969 -13.59765625 18.66015625 C-12.94796875 19.37107422 -12.29828125 20.08199219 -11.62890625 20.81445312 C-10.02756252 22.56886647 -8.43430349 24.32995874 -6.84765625 26.09765625 C-7.92856058 24.22125492 -9.01250031 22.34660201 -10.09765625 20.47265625 C-10.731875 19.37695312 -11.36609375 18.28125 -12.01953125 17.15234375 C-13.38573396 14.86950076 -14.77535932 12.73465137 -16.34765625 10.59765625 C-17.84765625 8.09765625 -17.84765625 8.09765625 -17.78515625 5.84765625 C-16.84765625 4.09765625 -16.84765625 4.09765625 -13.84765625 2.09765625 C-11.34765625 1.97265625 -11.34765625 1.97265625 -8.84765625 3.09765625 C-7.56384971 5.81932611 -6.70042383 8.23604957 -5.84765625 11.09765625 C-5.12235464 13.26561982 -4.39306242 15.43225166 -3.66015625 17.59765625 C-3.05450167 19.43049858 -2.4498173 21.26366319 -1.84765625 23.09765625 C-1.88318604 22.43644775 -1.91871582 21.77523926 -1.95532227 21.09399414 C-2.11231872 18.11630337 -2.26134259 15.13826668 -2.41015625 12.16015625 C-2.49426758 10.5987793 -2.49426758 10.5987793 -2.58007812 9.00585938 C-2.62841797 8.01650391 -2.67675781 7.02714844 -2.7265625 6.0078125 C-2.77369385 5.09136963 -2.8208252 4.17492676 -2.86938477 3.23071289 C-2.84182188 0.52490427 -2.70668461 0.14305944 0 0 Z " fill="#FBCE1A" transform="translate(39.84765625,3.90234375)"/>
<path d="M0 0 C3.40667322 0.44824648 5.07914607 1.05276405 8 3 C7.55077798 8.07525299 5.02986697 10.99702108 1.9375 14.8125 C1.46505859 15.40998047 0.99261719 16.00746094 0.50585938 16.62304688 C-0.65472506 18.08843126 -1.82628832 19.54510876 -3 21 C-1.24338008 21 -0.22759263 19.48212173 1.01953125 18.33984375 C1.62990234 17.79392578 2.24027344 17.24800781 2.86914062 16.68554688 C4.16020278 15.52423971 5.44415684 14.35497921 6.72070312 13.17773438 C7.33494141 12.63310547 7.94917969 12.08847656 8.58203125 11.52734375 C9.14124268 11.01937256 9.7004541 10.51140137 10.27661133 9.98803711 C12 9 12 9 14.08862305 9.21704102 C16 10 16 10 18 12 C18 13.65 18 15.3 18 17 C11.4 20.63 4.8 24.26 -2 28 C4.02866226 26.07340548 4.02866226 26.07340548 10.05541992 24.14086914 C10.81443604 23.89973389 11.57345215 23.65859863 12.35546875 23.41015625 C13.12528076 23.16402588 13.89509277 22.91789551 14.68823242 22.66430664 C17.13989268 21.95980061 19.46480211 21.31149822 22 21 C24 23 24 23 24.1875 26.0625 C24 29 24 29 23 30 C15.01783797 31.52094047 7.11984496 32.33676776 -1 32 C-1 32.66 -1 33.32 -1 34 C-0.18917969 33.98839844 0.62164062 33.97679687 1.45703125 33.96484375 C8.65659999 33.90617439 15.86677857 33.89734554 23 35 C24 36 24 36 24.125 39 C24 42 24 42 23 43 C16.26097618 42.52105036 9.96008312 41.14590952 3.4375 39.4375 C2.52419922 39.20353516 1.61089844 38.96957031 0.66992188 38.72851562 C-1.55484564 38.15776375 -3.77802897 37.58152522 -6 37 C-6.42317708 34.98177083 -6.84635417 32.96354167 -7.26953125 30.9453125 C-7.92308838 28.62953451 -7.92308838 28.62953451 -11 27 C-9.37212884 20.55052949 -7.04233323 14.514865 -4.375 8.4375 C-4.06167725 7.72271484 -3.74835449 7.00792969 -3.42553711 6.27148438 C-1.13999589 1.13999589 -1.13999589 1.13999589 0 0 Z " fill="#FBCD19" transform="translate(55,7)"/>
<path d="M0 0 C1.216875 0.268125 2.43375 0.53625 3.6875 0.8125 C3.6875 1.1425 3.6875 1.4725 3.6875 1.8125 C1.0475 1.8125 -1.5925 1.8125 -4.3125 1.8125 C-4.3125 3.7925 -4.3125 5.7725 -4.3125 7.8125 C12.5175 8.1425 29.3475 8.4725 46.6875 8.8125 C47.1825 10.7925 47.1825 10.7925 47.6875 12.8125 C45.3775 13.4725 43.0675 14.1325 40.6875 14.8125 C41.3475 15.4725 42.0075 16.1325 42.6875 16.8125 C43.15629799 20.40661792 43.13111448 22.16414037 41.0625 25.1875 C37.97563568 27.29956506 36.3592087 27.42445145 32.6875 26.8125 C30.25 25.25 30.25 25.25 28.6875 22.8125 C29.00892857 16.49107143 29.00892857 16.49107143 30.6875 14.8125 C23.7575 14.8125 16.8275 14.8125 9.6875 14.8125 C10.6775 16.2975 10.6775 16.2975 11.6875 17.8125 C12.19484682 21.11025432 11.99807067 22.37053405 10.0625 25.125 C6.9810202 27.31447249 5.39508991 27.43043165 1.6875 26.8125 C-0.6875 25.1875 -0.6875 25.1875 -2.3125 22.8125 C-2.6875 19.6875 -2.6875 19.6875 -2.3125 16.8125 C-1.6525 16.1525 -0.9925 15.4925 -0.3125 14.8125 C-1.42625 14.544375 -2.54 14.27625 -3.6875 14 C-7.3125 12.8125 -7.3125 12.8125 -9.3125 9.8125 C-9.75 7.4375 -9.75 7.4375 -9.3125 4.8125 C-6.54895719 0.83990721 -4.76225832 -0.60056899 0 0 Z " fill="#BB834A" transform="translate(65.3125,115.1875)"/>
<path d="M0 0 C2.33333333 0 4.66666667 0 7 0 C7 0.99 7 1.98 7 3 C6.52949219 3.42925781 6.05898437 3.85851563 5.57421875 4.30078125 C3.32236974 6.73143713 3.26577667 8.9448284 2.8125 12.1875 C2.57466797 13.81751953 2.57466797 13.81751953 2.33203125 15.48046875 C2.16767578 16.72763672 2.16767578 16.72763672 2 18 C0.35 17.34 -1.3 16.68 -3 16 C-3 16.66 -3 17.32 -3 18 C-2.01 18.33 -1.02 18.66 0 19 C0.125 21.375 0.125 21.375 0 24 C-0.66 24.66 -1.32 25.32 -2 26 C-1.67 26.99 -1.34 27.98 -1 29 C-1.96476382 31.01723344 -2.96838392 33.01612292 -4 35 C-4.69907414 37.73572585 -4.69907414 37.73572585 -5 40 C-6.65 39.67 -8.3 39.34 -10 39 C-10 37.68 -10 36.36 -10 35 C-10.99 35 -11.98 35 -13 35 C-12.505 34.505 -12.505 34.505 -12 34 C-12.99 33.34 -13.98 32.68 -15 32 C-16.1875 29.375 -16.1875 29.375 -17 27 C-16.67 26.67 -16.34 26.34 -16 26 C-16.66 25.67 -17.32 25.34 -18 25 C-17.01 24.34 -16.02 23.68 -15 23 C-15.99 22.34 -16.98 21.68 -18 21 C-17.34 20.67 -16.68 20.34 -16 20 C-16.66 19.67 -17.32 19.34 -18 19 C-18 18.34 -18 17.68 -18 17 C-17.34 17 -16.68 17 -16 17 C-16 15.68 -16 14.36 -16 13 C-15.34 12.67 -14.68 12.34 -14 12 C-14.33 11.34 -14.66 10.68 -15 10 C-13.68 10 -12.36 10 -11 10 C-11.66 9.67 -12.32 9.34 -13 9 C-13 8.34 -13 7.68 -13 7 C-12.01 7 -11.02 7 -10 7 C-9.79375 6.38125 -9.5875 5.7625 -9.375 5.125 C-7.45224112 2.15346355 -5.33405473 1.86975341 -2 1 C-1.67 1.33 -1.34 1.66 -1 2 C-0.67 1.34 -0.34 0.68 0 0 Z " fill="#F4F1EB" transform="translate(84,59)"/>
<path d="M0 0 C0.66 0 1.32 0 2 0 C1.09555524 4.37833486 -0.90544851 8.14787337 -2.84375 12.1484375 C-7.21958078 22.94018232 -5.6121795 34.95370561 -1.54296875 45.55078125 C0.6459772 50.44404523 3.27144415 54.1737199 7 58 C8.0209375 59.06154297 8.0209375 59.06154297 9.0625 60.14453125 C13.79846874 64.70290117 18.53975858 67.51619794 24.6171875 69.9921875 C27 71 27 71 30 73 C21.13785605 73.70334476 16.33669883 71.39708075 9.421875 65.98046875 C1.88942882 59.54180592 -3.90631821 52.84030442 -6 43 C-6.64066406 42.92523438 -7.28132813 42.85046875 -7.94140625 42.7734375 C-14.34299008 41.80032044 -18.87501953 40.17520556 -23 35 C-23.9375 32.125 -23.9375 32.125 -24 30 C-18.7258624 29.3407328 -15.90460441 30.93071484 -11.63671875 33.7109375 C-10 35 -10 35 -9 37 C-9.05220703 35.22496094 -9.05220703 35.22496094 -9.10546875 33.4140625 C-9.36537949 20.94626298 -8.53192773 11.37672057 -1 1 C-0.67 0.67 -0.34 0.34 0 0 Z " fill="#87B06B" transform="translate(40,40)"/>
<path d="M0 0 C2.3125 0.25 2.3125 0.25 5 1 C5.61875 1.99 5.61875 1.99 6.25 3 C8.80903919 5.92461622 11.38978406 5.65893221 15.13671875 5.921875 C15.75160156 5.94765625 16.36648437 5.9734375 17 6 C16.34 6.66 15.68 7.32 15 8 C15.33 8.66 15.66 9.32 16 10 C14.68 10 13.36 10 12 10 C12 10.99 12 11.98 12 13 C11.67 12.67 11.34 12.34 11 12 C10.01 13.485 10.01 13.485 9 15 C6.375 16.1875 6.375 16.1875 4 17 C3.67 16.67 3.34 16.34 3 16 C2.67 16.66 2.34 17.32 2 18 C-2 18 -2 18 -3.75 16.5 C-4.1625 16.005 -4.575 15.51 -5 15 C-5.99 15.66 -6.98 16.32 -8 17 C-7.43215818 11.5487185 -6.17545909 7.04706509 -4 2 C-3.34 1.67 -2.68 1.34 -2 1 C-2 1.99 -2 2.98 -2 4 C-1.34 4 -0.68 4 0 4 C0 2.68 0 1.36 0 0 Z " fill="#FCFBF9" transform="translate(89,85)"/>
<path d="M0 0 C0.66 0.33 1.32 0.66 2 1 C2 2.32 2 3.64 2 5 C3.32 5.66 4.64 6.32 6 7 C5.979375 7.763125 5.95875 8.52625 5.9375 9.3125 C5.87057159 12.10185786 5.87057159 12.10185786 7 15 C6.01 14.67 5.02 14.34 4 14 C3.67 14.99 3.34 15.98 3 17 C2.34 17 1.68 17 1 17 C0.67 16.34 0.34 15.68 0 15 C-4.21002385 24.04027443 -4.3594335 31.20543726 -4 41 C3.26 41 10.52 41 18 41 C18 41.33 18 41.66 18 42 C8.43 42 -1.14 42 -11 42 C-9.02 41.505 -9.02 41.505 -7 41 C-7.15984375 40.43667969 -7.3196875 39.87335938 -7.484375 39.29296875 C-9.53469007 30.17527976 -7.17609881 22.0980003 -3 14 C-3.66 13.67 -4.32 13.34 -5 13 C-4.01 11.68 -3.02 10.36 -2 9 C-3.32 8.67 -4.64 8.34 -6 8 C-4.68 8 -3.36 8 -2 8 C-2.495 7.54625 -2.99 7.0925 -3.5 6.625 C-5 5 -5 5 -5 3 C-2.525 3.99 -2.525 3.99 0 5 C0 3.35 0 1.7 0 0 Z " fill="#8CB26D" transform="translate(86,72)"/>
<path d="M0 0 C1.12591553 0.04713135 2.25183105 0.0942627 3.41186523 0.14282227 C5.23427734 0.21533203 5.23427734 0.21533203 7.09350586 0.28930664 C8.37290039 0.34538086 9.65229492 0.40145508 10.97045898 0.45922852 C12.89535156 0.53753906 12.89535156 0.53753906 14.85913086 0.61743164 C18.0422929 0.74759812 21.22517902 0.88257852 24.40795898 1.02172852 C24.07795898 2.01172852 23.74795898 3.00172852 23.40795898 4.02172852 C21.66137695 4.72949219 21.66137695 4.72949219 19.40014648 5.18969727 C18.57772461 5.36049805 17.75530273 5.53129883 16.90795898 5.70727539 C16.04170898 5.87291992 15.17545898 6.03856445 14.28295898 6.20922852 C13.43991211 6.38647461 12.59686523 6.5637207 11.72827148 6.74633789 C6.87352316 7.72256446 2.35955855 8.31724838 -2.59204102 8.02172852 C-3.59204102 7.02172852 -3.59204102 7.02172852 -3.71704102 4.02172852 C-3.5507092 0.02976482 -3.5507092 0.02976482 0 0 Z " fill="#FDCD10" transform="translate(6.592041015625,38.978271484375)"/>
<path d="M0 0 C1.98 0.495 1.98 0.495 4 1 C4.98219908 5.20763149 5.96022284 9.41622285 6.9375 13.625 C7.21529297 14.81480469 7.49308594 16.00460938 7.77929688 17.23046875 C8.04677734 18.38417969 8.31425781 19.53789063 8.58984375 20.7265625 C8.83597412 21.78439941 9.08210449 22.84223633 9.33569336 23.93212891 C9.98791252 26.94417815 10.51931162 29.95630514 11 33 C8.21484375 32.30859375 8.21484375 32.30859375 5 30 C3.2852583 25.81490736 2.45105105 21.48619787 1.5625 17.0625 C1.29501953 15.86947266 1.02753906 14.67644531 0.75195312 13.44726562 C-1.32100126 3.81858195 -1.32100126 3.81858195 0 0 Z " fill="#BA8043" transform="translate(52,73)"/>
<path d="M0 0 C1.33788292 0.04839047 2.67577355 0.09656855 4.01367188 0.14453125 C7.23836275 0.26094608 10.46296083 0.37946846 13.6875 0.5 C13.6875 0.83 13.6875 1.16 13.6875 1.5 C3.7875 1.83 -6.1125 2.16 -16.3125 2.5 C-1.4625 2.995 -1.4625 2.995 13.6875 3.5 C13.6875 3.83 13.6875 4.16 13.6875 4.5 C-0.5025 4.5 -14.6925 4.5 -29.3125 4.5 C-29.3125 3.84 -29.3125 3.18 -29.3125 2.5 C-32.60064599 5.22606304 -32.60064599 5.22606304 -33.5625 9.25 C-33.48 9.9925 -33.3975 10.735 -33.3125 11.5 C-33.9725 11.17 -34.6325 10.84 -35.3125 10.5 C-35.64324549 6.86179956 -35.80055542 5.1226914 -33.5 2.1875 C-25.55301733 -3.94302949 -9.479888 -0.35483648 0 0 Z " fill="#B1782D" transform="translate(90.3125,113.5)"/>
<path d="M0 0 C2.33333333 0 4.66666667 0 7 0 C7 0.99 7 1.98 7 3 C6.525625 3.4125 6.05125 3.825 5.5625 4.25 C3.21852827 6.87524834 3.32216704 9.58502942 3 13 C2.34 12.67 1.68 12.34 1 12 C1 10.35 1 8.7 1 7 C0.21625 6.690625 -0.5675 6.38125 -1.375 6.0625 C-4 5 -4 5 -6 4 C-5.85892253 5.45880109 -5.71197585 6.91703551 -5.5625 8.375 C-5.44068359 9.59316406 -5.44068359 9.59316406 -5.31640625 10.8359375 C-5.10909886 13.04272805 -5.10909886 13.04272805 -4 15 C-4.886875 14.835 -5.77375 14.67 -6.6875 14.5 C-9.53596892 14.07004243 -12.13004802 13.91558965 -15 14 C-15 13.01 -15 12.02 -15 11 C-13.68 10.67 -12.36 10.34 -11 10 C-11.66 9.67 -12.32 9.34 -13 9 C-13 8.34 -13 7.68 -13 7 C-12.01 7 -11.02 7 -10 7 C-9.79375 6.38125 -9.5875 5.7625 -9.375 5.125 C-7.45224112 2.15346355 -5.33405473 1.86975341 -2 1 C-1.67 1.33 -1.34 1.66 -1 2 C-0.67 1.34 -0.34 0.68 0 0 Z " fill="#E6E0D2" transform="translate(84,59)"/>
<path d="M0 0 C0 1.32 0 2.64 0 4 C-0.66386719 4.08636719 -1.32773438 4.17273438 -2.01171875 4.26171875 C-7.81576806 5.1852828 -11.37948828 6.02179638 -15 11 C-16.33563611 14.16701423 -16.33563611 14.16701423 -17 17 C-17.33 15.68 -17.66 14.36 -18 13 C-18.66 13 -19.32 13 -20 13 C-20 8.52905371 -18.69217641 6.19843595 -15.625 3.125 C-10.71866035 -0.93388099 -6.10363811 -0.70685515 0 0 Z " fill="#B77C3A" transform="translate(140,61)"/>
<path d="M0 0 C0.33 0.99 0.66 1.98 1 3 C1.66 3 2.32 3 3 3 C3.12375 4.6396875 3.12375 4.6396875 3.25 6.3125 C3.63689209 10.03276664 3.63689209 10.03276664 6.0625 11.9375 C6.701875 12.288125 7.34125 12.63875 8 13 C7.67 13.66 7.34 14.32 7 15 C6.67 15 6.34 15 6 15 C5.67 15.66 5.34 16.32 5 17 C1 17 1 17 -0.75 15.5 C-1.1625 15.005 -1.575 14.51 -2 14 C-2.99 14.66 -3.98 15.32 -5 16 C-3.72093023 3.72093023 -3.72093023 3.72093023 0 0 Z " fill="#E4DECE" transform="translate(86,86)"/>
<path d="M0 0 C0.66 0.33 1.32 0.66 2 1 C2 2.32 2 3.64 2 5 C3.32 5.66 4.64 6.32 6 7 C5.979375 7.763125 5.95875 8.52625 5.9375 9.3125 C5.87057159 12.10185786 5.87057159 12.10185786 7 15 C6.01 14.67 5.02 14.34 4 14 C3.67 14.99 3.34 15.98 3 17 C2.34 17 1.68 17 1 17 C1 15.35 1 13.7 1 12 C-0.98 12.66 -2.96 13.32 -5 14 C-4.01 12.35 -3.02 10.7 -2 9 C-3.32 8.67 -4.64 8.34 -6 8 C-4.68 8 -3.36 8 -2 8 C-2.7425 7.319375 -2.7425 7.319375 -3.5 6.625 C-5 5 -5 5 -5 3 C-2.525 3.99 -2.525 3.99 0 5 C0 3.35 0 1.7 0 0 Z " fill="#B88143" transform="translate(86,72)"/>
<path d="M0 0 C3.63 0.33 7.26 0.66 11 1 C7.56476684 6.02072539 7.56476684 6.02072539 5 8 C1.83004607 8.31957259 -0.93436707 7.8106896 -4 7 C-2.68 4.69 -1.36 2.38 0 0 Z " fill="#FCFAF8" transform="translate(73,81)"/>
<path d="M0 0 C0.66 0 1.32 0 2 0 C2 0.66 2 1.32 2 2 C2.66 2 3.32 2 4 2 C4 2.99 4 3.98 4 5 C4.66 5.33 5.32 5.66 6 6 C5.67 6.33 5.34 6.66 5 7 C5.99 7.66 6.98 8.32 8 9 C7.01 9.495 7.01 9.495 6 10 C6.66 10.66 7.32 11.32 8 12 C7.38511719 11.9278125 6.77023438 11.855625 6.13671875 11.78125 C5.32847656 11.6884375 4.52023438 11.595625 3.6875 11.5 C2.88699219 11.4071875 2.08648437 11.314375 1.26171875 11.21875 C-1.11896555 10.95186537 -1.11896555 10.95186537 -4 11 C-3.34 10.34 -2.68 9.68 -2 9 C-1.32348793 6.80295489 -1.32348793 6.80295489 -0.875 4.375 C-0.70742187 3.55773437 -0.53984375 2.74046875 -0.3671875 1.8984375 C-0.24601562 1.27195312 -0.12484375 0.64546875 0 0 Z " fill="#E2DBCB" transform="translate(105,65)"/>
<path d="M0 0 C1.65 0.33 3.3 0.66 5 1 C4.34 5.29 3.68 9.58 3 14 C2.67 13.34 2.34 12.68 2 12 C1.01 12.33 0.02 12.66 -1 13 C-2.07310858 9.72814447 -1.89263102 7.57052408 -1.0625 4.25 C-0.86785156 3.45078125 -0.67320313 2.6515625 -0.47265625 1.828125 C-0.31667969 1.22484375 -0.16070312 0.6215625 0 0 Z " fill="#BB864F" transform="translate(115,92)"/>
<path d="M0 0 C0.474375 0.639375 0.94875 1.27875 1.4375 1.9375 C5.05420035 4.84850272 8.47204894 4.80649782 13 5 C12.34 5.66 11.68 6.32 11 7 C11.33 7.66 11.66 8.32 12 9 C10.68 9 9.36 9 8 9 C8 9.99 8 10.98 8 12 C7.67 11.67 7.34 11.34 7 11 C6.01 12.485 6.01 12.485 5 14 C4.67 13.34 4.34 12.68 4 12 C3.34 12.66 2.68 13.32 2 14 C2.03480469 13.39671875 2.06960937 12.7934375 2.10546875 12.171875 C2.3514449 7.07474512 2.3514449 7.07474512 0.5 2.4375 C0.005 1.963125 -0.49 1.48875 -1 1 C-0.67 0.67 -0.34 0.34 0 0 Z " fill="#E4DDCE" transform="translate(93,86)"/>
<path d="M0 0 C0 0.33 0 0.66 0 1 C-1.2065625 1.185625 -1.2065625 1.185625 -2.4375 1.375 C-3.283125 1.58125 -4.12875 1.7875 -5 2 C-5.33 2.66 -5.66 3.32 -6 4 C-3.36 4 -0.72 4 2 4 C2 4.33 2 4.66 2 5 C-6.05358138 5.14525497 -13.97875848 4.71413279 -22 4 C-22 3.34 -22 2.68 -22 2 C-7.40318907 -0.29612756 -7.40318907 -0.29612756 0 0 Z " fill="#FBEFBE" transform="translate(76,37)"/>
<path d="M0 0 C1.216875 0.268125 2.43375 0.53625 3.6875 0.8125 C3.6875 1.1425 3.6875 1.4725 3.6875 1.8125 C1.0475 1.8125 -1.5925 1.8125 -4.3125 1.8125 C-4.73059201 4.64401973 -4.73059201 4.64401973 -4.3125 7.8125 C-1.93407423 10.21656384 -1.93407423 10.21656384 0.6875 11.8125 C-1.9525 12.1425 -4.5925 12.4725 -7.3125 12.8125 C-9.49288095 9.54192857 -9.94496755 8.60730531 -9.3125 4.8125 C-6.54895719 0.83990721 -4.76225832 -0.60056899 0 0 Z " fill="#B98049" transform="translate(65.3125,115.1875)"/>
<path d="M0 0 C-0.28875 0.845625 -0.5775 1.69125 -0.875 2.5625 C-2.00772704 6.02361041 -3.01824316 9.49372557 -4 13 C-5.65 12.67 -7.3 12.34 -9 12 C-9 11.01 -9 10.02 -9 9 C-8.34 8.67 -7.68 8.34 -7 8 C-6.34786708 5.97536745 -6.34786708 5.97536745 -6 4 C-6.66 3.67 -7.32 3.34 -8 3 C-3.375 0 -3.375 0 0 0 Z " fill="#EDEBE1" transform="translate(83,86)"/>
<path d="M0 0 C1.65 0 3.3 0 5 0 C5.33 0.66 5.66 1.32 6 2 C6.66 1.67 7.32 1.34 8 1 C8 1.99 8 2.98 8 4 C9.32 4 10.64 4 12 4 C12.33 4.66 12.66 5.32 13 6 C10.36 6.99 7.72 7.98 5 9 C0 2.25 0 2.25 0 0 Z " fill="#E5DFD0" transform="translate(99,42)"/>
<path d="M0 0 C1.32 0 2.64 0 4 0 C4 0.99 4 1.98 4 3 C4.66 2.67 5.32 2.34 6 2 C5.67 2.99 5.34 3.98 5 5 C6.32 5.33 7.64 5.66 9 6 C9 6.99 9 7.98 9 9 C5.7 9.33 2.4 9.66 -1 10 C-0.67 6.7 -0.34 3.4 0 0 Z " fill="#E3DDCE" transform="translate(126,37)"/>
<path d="M0 0 C0.33 0 0.66 0 1 0 C1.33 4.29 1.66 8.58 2 13 C9.26 13 16.52 13 24 13 C24 13.33 24 13.66 24 14 C14.43 14 4.86 14 -5 14 C-3.68 13.67 -2.36 13.34 -1 13 C-0.67 8.71 -0.34 4.42 0 0 Z " fill="#B9B88F" transform="translate(80,100)"/>
<path d="M0 0 C0.66 0.33 1.32 0.66 2 1 C1.34 1.66 0.68 2.32 0 3 C0.33 3.66 0.66 4.32 1 5 C-1.28855702 5.86343731 -3.5801928 6.7159811 -5.875 7.5625 C-6.52597656 7.80935547 -7.17695312 8.05621094 -7.84765625 8.31054688 C-9.54497665 8.93173115 -11.27156776 9.47152252 -13 10 C-13.66 9.67 -14.32 9.34 -15 9 C-12.54732365 7.46931512 -10.08866106 5.95031377 -7.625 4.4375 C-6.92632812 3.99986328 -6.22765625 3.56222656 -5.5078125 3.11132812 C-3.70814097 2.01249022 -1.85677657 0.99932133 0 0 Z " fill="#FCF4CE" transform="translate(67,26)"/>
<path d="M0 0 C0.33 0 0.66 0 1 0 C1.28526928 3.37885612 1.46087248 6.63291991 1 10 C-1.5 12.125 -1.5 12.125 -4 13 C-3.56407724 7.85611138 -3.18386087 4.24514783 0 0 Z " fill="#F7F8F3" transform="translate(86,86)"/>
<path d="M0 0 C0.75 1.75 0.75 1.75 1 4 C-0.9375 6.25 -0.9375 6.25 -3 8 C-4.32 7.34 -5.64 6.68 -7 6 C-7 5.34 -7 4.68 -7 4 C-4.69 2.68 -2.38 1.36 0 0 Z " fill="#BA8247" transform="translate(107,134)"/>
<path d="M0 0 C0.99 0.66 1.98 1.32 3 2 C2.34 5.3 1.68 8.6 1 12 C0.34 11.67 -0.32 11.34 -1 11 C-2.19150921 6.63113288 -2.021829 4.04365799 0 0 Z " fill="#8FB473" transform="translate(34,49)"/>
<path d="M0 0 C0 1.32 0 2.64 0 4 C-2.97 4 -5.94 4 -9 4 C-8 1 -8 1 -5.625 -0.25 C-3 -1 -3 -1 0 0 Z " fill="#FBCB0E" transform="translate(60,35)"/>
<path d="M0 0 C0.66 0 1.32 0 2 0 C2 1.98 2 3.96 2 6 C3.32 6 4.64 6 6 6 C6 6.66 6 7.32 6 8 C4.00045254 8.04254356 1.99958364 8.04080783 0 8 C-1 7 -1 7 -1.125 4 C-1 1 -1 1 0 0 Z " fill="#FBCE23" transform="translate(4,39)"/>
<path d="M0 0 C2.64736593 0.20985218 3.77786261 0.78754291 5.703125 2.62890625 C6.21359375 3.26699219 6.7240625 3.90507812 7.25 4.5625 C7.77078125 5.20316406 8.2915625 5.84382813 8.828125 6.50390625 C9.21484375 6.99761719 9.6015625 7.49132812 10 8 C9.01 8 8.02 8 7 8 C5.33333333 6.33333333 3.66666667 4.66666667 2 3 C-0.17346568 2.13880866 -0.17346568 2.13880866 -2 2 C-1.34 1.34 -0.68 0.68 0 0 Z " fill="#FAD130" transform="translate(15,14)"/>
<path d="M0 0 C1.32 0.66 2.64 1.32 4 2 C3.67 3.32 3.34 4.64 3 6 C1.35 5.67 -0.3 5.34 -2 5 C-1.125 1.125 -1.125 1.125 0 0 Z " fill="#F6F1EA" transform="translate(100,132)"/>
<path d="M0 0 C1.32 0.66 2.64 1.32 4 2 C3.67 3.32 3.34 4.64 3 6 C1.35 5.67 -0.3 5.34 -2 5 C-1.125 1.125 -1.125 1.125 0 0 Z " fill="#F7F2EB" transform="translate(69,132)"/>
<path d="M0 0 C4.17712945 1.12895391 7.48063956 3.54463225 11 6 C10.01 6.495 10.01 6.495 9 7 C6.92803369 6.26821134 4.8891448 5.44100997 2.875 4.5625 C1.77929688 4.08941406 0.68359375 3.61632812 -0.4453125 3.12890625 C-1.28835937 2.75636719 -2.13140625 2.38382813 -3 2 C-2.01 1.34 -1.02 0.68 0 0 Z " fill="#FBF2C3" transform="translate(20,28)"/>
<path d="M0 0 C0.33 0.66 0.66 1.32 1 2 C1.66 2 2.32 2 3 2 C3.625 4.8125 3.625 4.8125 4 8 C3.01 9.485 3.01 9.485 2 11 C1.67 10.01 1.34 9.02 1 8 C0.34 8 -0.32 8 -1 8 C-0.67 5.36 -0.34 2.72 0 0 Z " fill="#B98145" transform="translate(119,72)"/>
<path d="M0 0 C0.66 0.33 1.32 0.66 2 1 C1.54738642 2.43931117 1.08767021 3.87638999 0.625 5.3125 C0.36976562 6.11300781 0.11453125 6.91351563 -0.1484375 7.73828125 C-1 10 -1 10 -3 13 C-3.66 13 -4.32 13 -5 13 C-4.54554036 11.58208592 -4.08625056 10.16571954 -3.625 8.75 C-3.24214844 7.56664062 -3.24214844 7.56664062 -2.8515625 6.359375 C-2.04826333 4.13372042 -1.10288338 2.09068328 0 0 Z " fill="#FAD029" transform="translate(53,10)"/>
<path d="M0 0 C2.39763185 2.39763185 2.34280586 3.33273498 2.625 6.625 C2.69976562 7.44226563 2.77453125 8.25953125 2.8515625 9.1015625 C2.92503906 10.04128906 2.92503906 10.04128906 3 11 C2.67 10.01 2.34 9.02 2 8 C-0.01508358 7.26676204 -0.01508358 7.26676204 -2 7 C-2 6.01 -2 5.02 -2 4 C-1.34 4 -0.68 4 0 4 C0 2.68 0 1.36 0 0 Z " fill="#B77B35" transform="translate(57,85)"/>
<path d="M0 0 C0.66 0 1.32 0 2 0 C2 0.66 2 1.32 2 2 C2.66 2 3.32 2 4 2 C2.75023244 5.65316671 2.32901247 6.78065836 -1 9 C-1.125 2.25 -1.125 2.25 0 0 Z " fill="#EBE6DB" transform="translate(105,65)"/>
<path d="M0 0 C4.875 4.625 4.875 4.625 6 8 C3.6875 8.25 3.6875 8.25 1 8 C-0.8125 6 -0.8125 6 -2 4 C-1.34 4 -0.68 4 0 4 C0 2.68 0 1.36 0 0 Z " fill="#B67934" transform="translate(97,134)"/>
<path d="M0 0 C2 3 2 3 2 7 C0.02 7.33 -1.96 7.66 -4 8 C-4 7.01 -4 6.02 -4 5 C-3.01 4.34 -2.02 3.68 -1 3 C-0.67 2.01 -0.34 1.02 0 0 Z " fill="#B77C3B" transform="translate(73,134)"/>
<path d="M0 0 C1.98 0.495 1.98 0.495 4 1 C3.34 3.64 2.68 6.28 2 9 C1.67 7.68 1.34 6.36 1 5 C0.34 5 -0.32 5 -1 5 C-0.67 3.35 -0.34 1.7 0 0 Z " fill="#B67834" transform="translate(121,69)"/>
<path d="M0 0 C1.32 0 2.64 0 4 0 C3.625 2.9375 3.625 2.9375 3 6 C2.01 6.495 2.01 6.495 1 7 C0.34 6.34 -0.32 5.68 -1 5 C-0.625 2.375 -0.625 2.375 0 0 Z " fill="#B67A36" transform="translate(113,104)"/>
<path d="M0 0 C0.66 0 1.32 0 2 0 C2 0.66 2 1.32 2 2 C3.0725 1.95875 4.145 1.9175 5.25 1.875 C9 2 9 2 13 4 C9.37 3.67 5.74 3.34 2 3 C1.67 3.99 1.34 4.98 1 6 C0.67 6 0.34 6 0 6 C0 4.02 0 2.04 0 0 Z " fill="#DCCFBA" transform="translate(71,78)"/>
<path d="M0 0 C0.33 0 0.66 0 1 0 C1.33 4.95 1.66 9.9 2 15 C-0.64924136 12.35075864 -0.65047622 10.70495205 -1 7 C-0.7355646 4.65785793 -0.41755362 2.31974234 0 0 Z " fill="#FBF1C4" transform="translate(37,14)"/>
<path d="M0 0 C0.66 0.33 1.32 0.66 2 1 C2.125 3.875 2.125 3.875 2 7 C1.34 7.66 0.68 8.32 0 9 C-0.87890625 2.84765625 -0.87890625 2.84765625 -1 1 C-0.67 0.67 -0.34 0.34 0 0 Z " fill="#B97F41" transform="translate(117,94)"/>
<path d="M0 0 C-1.1858237 3.37503669 -2.27573689 5.64722731 -5 8 C-6 6 -6 6 -5.1875 3.4375 C-3.79322886 0.57557503 -3.17112511 0 0 0 Z " fill="#8EAA65" transform="translate(87,84)"/>
<path d="M0 0 C0.66 0 1.32 0 2 0 C1.67 1.98 1.34 3.96 1 6 C1.99 6.33 2.98 6.66 4 7 C2.35 7.33 0.7 7.66 -1 8 C-1.04241723 5.66705225 -1.04092937 3.33297433 -1 1 C-0.67 0.67 -0.34 0.34 0 0 Z " fill="#FACE23" transform="translate(6,26)"/>
<path d="M0 0 C1.65 1.65 3.3 3.3 5 5 C4.01 6.485 4.01 6.485 3 8 C2.34 8 1.68 8 1 8 C1 6.68 1 5.36 1 4 C0.34 3.67 -0.32 3.34 -1 3 C-0.67 2.01 -0.34 1.02 0 0 Z " fill="#FAD233" transform="translate(46,26)"/>
<path d="M0 0 C0.66 0.33 1.32 0.66 2 1 C2 2.98 2 4.96 2 7 C1.01 7 0.02 7 -1 7 C-0.67 4.69 -0.34 2.38 0 0 Z " fill="#BE8A54" transform="translate(95,131)"/>
<path d="M0 0 C1.32 0 2.64 0 4 0 C3.67 1.32 3.34 2.64 3 4 C1.68 4.33 0.36 4.66 -1 5 C-0.67 3.35 -0.34 1.7 0 0 Z " fill="#B77C3B" transform="translate(107,112)"/>
<path d="M0 0 C0.625 1.8125 0.625 1.8125 1 4 C0.01 5.485 0.01 5.485 -1 7 C-1.66 7 -2.32 7 -3 7 C-2.625 4.0625 -2.625 4.0625 -2 1 C-1.34 0.67 -0.68 0.34 0 0 Z " fill="#9AB97E" transform="translate(82,91)"/>
<path d="M0 0 C-2.40820361 2.40820361 -3.65022937 2.68097423 -7 3 C-9.3125 2.0625 -9.3125 2.0625 -11 1 C-7.26562152 0.12132271 -3.83225427 -0.08912219 0 0 Z " fill="#FBEFBA" transform="translate(28,44)"/>
<path d="M0 0 C1.875 0.3125 1.875 0.3125 4 1 C4.66 1.99 5.32 2.98 6 4 C5.01 5.485 5.01 5.485 4 7 C3.67 6.01 3.34 5.02 3 4 C2.01 3.34 1.02 2.68 0 2 C0 1.34 0 0.68 0 0 Z " fill="#FACE22" transform="translate(67,16)"/>
</svg>
